<svg aria-hidden="true" style="position: absolute; width: 0; height: 0; overflow: hidden;" version="1.1" xmlns="http://www.w3.org/2000/svg" xmlns:xlink="http://www.w3.org/1999/xlink">
<defs>
<symbol id="icon-graduation-cap" viewBox="0 0 36 28">
<title>graduation-cap</title>
<path d="M27.719 13.062l0.281 4.937c0.125 2.203-4.484 4-10 4s-10.125-1.797-10-4l0.281-4.937 8.969 2.828c0.25 0.078 0.5 0.109 0.75 0.109s0.5-0.031 0.75-0.109zM36 8c0 0.219-0.141 0.406-0.344 0.484l-17.5 5.5c-0.063 0.016-0.109 0.016-0.156 0.016s-0.094 0-0.156-0.016l-10.187-3.219c-0.891 0.703-1.516 2.422-1.641 4.531 0.594 0.344 0.984 0.969 0.984 1.703 0 0.703-0.359 1.313-0.906 1.672l0.906 6.766c0.016 0.141-0.031 0.281-0.125 0.391s-0.234 0.172-0.375 0.172h-3c-0.141 0-0.281-0.063-0.375-0.172s-0.141-0.25-0.125-0.391l0.906-6.766c-0.547-0.359-0.906-0.969-0.906-1.672 0-0.75 0.422-1.391 1.016-1.734 0.094-1.828 0.562-3.797 1.531-5.156l-5.203-1.625c-0.203-0.078-0.344-0.266-0.344-0.484s0.141-0.406 0.344-0.484l17.5-5.5c0.063-0.016 0.109-0.016 0.156-0.016s0.094 0 0.156 0.016l17.5 5.5c0.203 0.078 0.344 0.266 0.344 0.484z"></path>
</symbol>
<symbol id="icon-graduation-cap2" viewBox="0 0 20 20">
<title>graduation-cap2</title>
<path d="M3.302 12.238c0.464 1.879 1.054 2.701 3.022 3.562 1.969 0.86 2.904 1.8 3.676 1.8s1.648-0.822 3.616-1.684c1.969-0.861 1.443-1.123 1.907-3.002l-5.523 2.686-6.698-3.362zM19.511 7.336l-8.325-4.662c-0.652-0.365-1.72-0.365-2.372 0l-8.326 4.662c-0.652 0.365-0.652 0.963 0 1.328l8.325 4.662c0.652 0.365 1.72 0.365 2.372 0l5.382-3.014-5.836-1.367c-0.225 0.055-0.472 0.086-0.731 0.086-1.052 0-1.904-0.506-1.904-1.131 0-0.627 0.853-1.133 1.904-1.133 0.816 0 1.51 0.307 1.78 0.734l6.182 2.029 1.549-0.867c0.651-0.364 0.651-0.962 0-1.327zM16.967 16.17c-0.065 0.385 1.283 1.018 1.411-0.107 0.579-5.072-0.416-6.531-0.416-6.531l-1.395 0.781c0-0.001 1.183 1.125 0.4 5.857z"></path>
</symbol>
<symbol id="icon-study" viewBox="0 0 32 32">
<title>study</title>
<path d="M32 8c0-1.406-0.957-2.608-2.326-2.924l-13.013-3.003c-0.218-0.049-0.44-0.073-0.661-0.073s-0.443 0.024-0.675 0.076l-12.999 3c-1.37 0.316-2.326 1.518-2.326 2.924s0.957 2.608 2.325 2.924l2.675 0.617v8.459c0 2.654 3.038 5 11 5s11-2.346 11-5v-8.459l2.674-0.617c1.369-0.316 2.326-1.518 2.326-2.924zM25 20c0 1.105-3 3-9 3s-9-1.895-9-3v-7.997l8.338 1.924c0.218 0.049 0.441 0.073 0.662 0.073s0.444-0.024 0.674-0.076l8.326-1.921v7.997zM16.225 11.975c-0.075 0.016-0.15 0.025-0.225 0.025s-0.151-0.009-0.225-0.025l-13-3c-0.454-0.105-0.775-0.509-0.775-0.975s0.321-0.87 0.775-0.975l13-3c0.074-0.016 0.149-0.025 0.225-0.025s0.151 0.009 0.225 0.025l13 3c0.453 0.105 0.775 0.509 0.775 0.975s-0.322 0.87-0.775 0.975l-13 3zM29 13c0-0.553 0.447-1 1-1 0.552 0 1 0.447 1 1v9c0 0.553-0.448 1-1 1-0.553 0-1-0.447-1-1v-9zM30 24c1.104 0 2 2.896 2 4s-0.896 2-2 2c-1.105 0-2-0.896-2-2s0.895-4 2-4z"></path>
</symbol>
<symbol id="icon-book" viewBox="0 0 32 32">
<title>book</title>
<path d="M28 4v26h-21c-1.657 0-3-1.343-3-3s1.343-3 3-3h19v-24h-20c-2.2 0-4 1.8-4 4v24c0 2.2 1.8 4 4 4h24v-28h-2z"></path>
<path d="M7.002 26v0c-0.001 0-0.001 0-0.002 0-0.552 0-1 0.448-1 1s0.448 1 1 1c0.001 0 0.001-0 0.002-0v0h18.997v-2h-18.997z"></path>
</symbol>
<symbol id="icon-books" viewBox="0 0 36 32">
<title>books</title>
<path d="M7 4h-6c-0.55 0-1 0.45-1 1v22c0 0.55 0.45 1 1 1h6c0.55 0 1-0.45 1-1v-22c0-0.55-0.45-1-1-1zM6 10h-4v-2h4v2z"></path>
<path d="M17 4h-6c-0.55 0-1 0.45-1 1v22c0 0.55 0.45 1 1 1h6c0.55 0 1-0.45 1-1v-22c0-0.55-0.45-1-1-1zM16 10h-4v-2h4v2z"></path>
<path d="M23.909 5.546l-5.358 2.7c-0.491 0.247-0.691 0.852-0.443 1.343l8.999 17.861c0.247 0.491 0.852 0.691 1.343 0.443l5.358-2.7c0.491-0.247 0.691-0.852 0.443-1.343l-8.999-17.861c-0.247-0.491-0.852-0.691-1.343-0.443z"></path>
</symbol>
<symbol id="icon-folder" viewBox="0 0 32 32">
<title>folder</title>
<path d="M14 4l4 4h14v22h-32v-26z"></path>
</symbol>
<symbol id="icon-folder-open" viewBox="0 0 32 32">
<title>folder-open</title>
<path d="M26 30l6-16h-26l-6 16zM4 12l-4 18v-26h9l4 4h13v4z"></path>
</symbol>
<symbol id="icon-users" viewBox="0 0 36 32">
<title>users</title>
<path d="M24 24.082v-1.649c2.203-1.241 4-4.337 4-7.432 0-4.971 0-9-6-9s-6 4.029-6 9c0 3.096 1.797 6.191 4 7.432v1.649c-6.784 0.555-12 3.888-12 7.918h28c0-4.030-5.216-7.364-12-7.918z"></path>
<path d="M10.225 24.854c1.728-1.13 3.877-1.989 6.243-2.513-0.47-0.556-0.897-1.176-1.265-1.844-0.95-1.726-1.453-3.627-1.453-5.497 0-2.689 0-5.228 0.956-7.305 0.928-2.016 2.598-3.265 4.976-3.734-0.529-2.39-1.936-3.961-5.682-3.961-6 0-6 4.029-6 9 0 3.096 1.797 6.191 4 7.432v1.649c-6.784 0.555-12 3.888-12 7.918h8.719c0.454-0.403 0.956-0.787 1.506-1.146z"></path>
</symbol>
</defs>
</svg>
